<svg class="rich-terminal" viewBox="0 0 1726 1074.8" xmlns="http://www.w3.org/2000/svg">
    <!-- Generated with Rich https://www.textualize.io -->
    <style>

    @font-face {
        font-family: "Fira Code";
        src: local("FiraCode-Regular"),
                url("https://cdnjs.cloudflare.com/ajax/libs/firacode/6.2.0/woff2/FiraCode-Regular.woff2") format("woff2"),
                url("https://cdnjs.cloudflare.com/ajax/libs/firacode/6.2.0/woff/FiraCode-Regular.woff") format("woff");
        font-style: normal;
        font-weight: 400;
    }
    @font-face {
        font-family: "Fira Code";
        src: local("FiraCode-Bold"),
                url("https://cdnjs.cloudflare.com/ajax/libs/firacode/6.2.0/woff2/FiraCode-Bold.woff2") format("woff2"),
                url("https://cdnjs.cloudflare.com/ajax/libs/firacode/6.2.0/woff/FiraCode-Bold.woff") format("woff");
        font-style: bold;
        font-weight: 700;
    }

    .terminal-2709292715-matrix {
        font-family: Fira Code, monospace;
        font-size: 20px;
        line-height: 24.4px;
        font-variant-east-asian: full-width;
    }

    .terminal-2709292715-title {
        font-size: 18px;
        font-weight: bold;
        font-family: arial;
    }

    .terminal-2709292715-r1 { fill: #c5c8c6 }
.terminal-2709292715-r2 { fill: #e0e0e0 }
.terminal-2709292715-r3 { fill: #a0a3a6 }
.terminal-2709292715-r4 { fill: #e0e0e0;font-weight: bold }
.terminal-2709292715-r5 { fill: #58d1eb;font-weight: bold }
.terminal-2709292715-r6 { fill: #f4005f }
.terminal-2709292715-r7 { fill: #ddedf9;font-weight: bold }
.terminal-2709292715-r8 { fill: #45505a }
.terminal-2709292715-r9 { fill: #a5a5a5;font-weight: bold }
.terminal-2709292715-r10 { fill: #ffa62b;font-weight: bold }
.terminal-2709292715-r11 { fill: #495259 }
    </style>

    <defs>
    <clipPath id="terminal-2709292715-clip-terminal">
      <rect x="0" y="0" width="1707.0" height="1023.8" />
    </clipPath>
    <clipPath id="terminal-2709292715-line-0">
    <rect x="0" y="1.5" width="1708" height="24.65"/>
            </clipPath>
<clipPath id="terminal-2709292715-line-1">
    <rect x="0" y="25.9" width="1708" height="24.65"/>
            </clipPath>
<clipPath id="terminal-2709292715-line-2">
    <rect x="0" y="50.3" width="1708" height="24.65"/>
            </clipPath>
<clipPath id="terminal-2709292715-line-3">
    <rect x="0" y="74.7" width="1708" height="24.65"/>
            </clipPath>
<clipPath id="terminal-2709292715-line-4">
    <rect x="0" y="99.1" width="1708" height="24.65"/>
            </clipPath>
<clipPath id="terminal-2709292715-line-5">
    <rect x="0" y="123.5" width="1708" height="24.65"/>
            </clipPath>
<clipPath id="terminal-2709292715-line-6">
    <rect x="0" y="147.9" width="1708" height="24.65"/>
            </clipPath>
<clipPath id="terminal-2709292715-line-7">
    <rect x="0" y="172.3" width="1708" height="24.65"/>
            </clipPath>
<clipPath id="terminal-2709292715-line-8">
    <rect x="0" y="196.7" width="1708" height="24.65"/>
            </clipPath>
<clipPath id="terminal-2709292715-line-9">
    <rect x="0" y="221.1" width="1708" height="24.65"/>
            </clipPath>
<clipPath id="terminal-2709292715-line-10">
    <rect x="0" y="245.5" width="1708" height="24.65"/>
            </clipPath>
<clipPath id="terminal-2709292715-line-11">
    <rect x="0" y="269.9" width="1708" height="24.65"/>
            </clipPath>
<clipPath id="terminal-2709292715-line-12">
    <rect x="0" y="294.3" width="1708" height="24.65"/>
            </clipPath>
<clipPath id="terminal-2709292715-line-13">
    <rect x="0" y="318.7" width="1708" height="24.65"/>
            </clipPath>
<clipPath id="terminal-2709292715-line-14">
    <rect x="0" y="343.1" width="1708" height="24.65"/>
            </clipPath>
<clipPath id="terminal-2709292715-line-15">
    <rect x="0" y="367.5" width="1708" height="24.65"/>
            </clipPath>
<clipPath id="terminal-2709292715-line-16">
    <rect x="0" y="391.9" width="1708" height="24.65"/>
            </clipPath>
<clipPath id="terminal-2709292715-line-17">
    <rect x="0" y="416.3" width="1708" height="24.65"/>
            </clipPath>
<clipPath id="terminal-2709292715-line-18">
    <rect x="0" y="440.7" width="1708" height="24.65"/>
            </clipPath>
<clipPath id="terminal-2709292715-line-19">
    <rect x="0" y="465.1" width="1708" height="24.65"/>
            </clipPath>
<clipPath id="terminal-2709292715-line-20">
    <rect x="0" y="489.5" width="1708" height="24.65"/>
            </clipPath>
<clipPath id="terminal-2709292715-line-21">
    <rect x="0" y="513.9" width="1708" height="24.65"/>
            </clipPath>
<clipPath id="terminal-2709292715-line-22">
    <rect x="0" y="538.3" width="1708" height="24.65"/>
            </clipPath>
<clipPath id="terminal-2709292715-line-23">
    <rect x="0" y="562.7" width="1708" height="24.65"/>
            </clipPath>
<clipPath id="terminal-2709292715-line-24">
    <rect x="0" y="587.1" width="1708" height="24.65"/>
            </clipPath>
<clipPath id="terminal-2709292715-line-25">
    <rect x="0" y="611.5" width="1708" height="24.65"/>
            </clipPath>
<clipPath id="terminal-2709292715-line-26">
    <rect x="0" y="635.9" width="1708" height="24.65"/>
            </clipPath>
<clipPath id="terminal-2709292715-line-27">
    <rect x="0" y="660.3" width="1708" height="24.65"/>
            </clipPath>
<clipPath id="terminal-2709292715-line-28">
    <rect x="0" y="684.7" width="1708" height="24.65"/>
            </clipPath>
<clipPath id="terminal-2709292715-line-29">
    <rect x="0" y="709.1" width="1708" height="24.65"/>
            </clipPath>
<clipPath id="terminal-2709292715-line-30">
    <rect x="0" y="733.5" width="1708" height="24.65"/>
            </clipPath>
<clipPath id="terminal-2709292715-line-31">
    <rect x="0" y="757.9" width="1708" height="24.65"/>
            </clipPath>
<clipPath id="terminal-2709292715-line-32">
    <rect x="0" y="782.3" width="1708" height="24.65"/>
            </clipPath>
<clipPath id="terminal-2709292715-line-33">
    <rect x="0" y="806.7" width="1708" height="24.65"/>
            </clipPath>
<clipPath id="terminal-2709292715-line-34">
    <rect x="0" y="831.1" width="1708" height="24.65"/>
            </clipPath>
<clipPath id="terminal-2709292715-line-35">
    <rect x="0" y="855.5" width="1708" height="24.65"/>
            </clipPath>
<clipPath id="terminal-2709292715-line-36">
    <rect x="0" y="879.9" width="1708" height="24.65"/>
            </clipPath>
<clipPath id="terminal-2709292715-line-37">
    <rect x="0" y="904.3" width="1708" height="24.65"/>
            </clipPath>
<clipPath id="terminal-2709292715-line-38">
    <rect x="0" y="928.7" width="1708" height="24.65"/>
            </clipPath>
<clipPath id="terminal-2709292715-line-39">
    <rect x="0" y="953.1" width="1708" height="24.65"/>
            </clipPath>
<clipPath id="terminal-2709292715-line-40">
    <rect x="0" y="977.5" width="1708" height="24.65"/>
            </clipPath>
    </defs>

    <rect fill="#292929" stroke="rgba(255,255,255,0.35)" stroke-width="1" x="1" y="1" width="1724" height="1072.8" rx="8"/><text class="terminal-2709292715-title" fill="#c5c8c6" text-anchor="middle" x="862" y="27">LoT</text>
            <g transform="translate(26,22)">
            <circle cx="0" cy="0" r="7" fill="#ff5f57"/>
            <circle cx="22" cy="0" r="7" fill="#febc2e"/>
            <circle cx="44" cy="0" r="7" fill="#28c840"/>
            </g>
        
    <g transform="translate(9, 41)" clip-path="url(#terminal-2709292715-clip-terminal)">
    <rect fill="#242f38" x="0" y="1.5" width="12.2" height="24.65" shape-rendering="crispEdges"/><rect fill="#242f38" x="12.2" y="1.5" width="12.2" height="24.65" shape-rendering="crispEdges"/><rect fill="#242f38" x="24.4" y="1.5" width="61" height="24.65" shape-rendering="crispEdges"/><rect fill="#242f38" x="85.4" y="1.5" width="12.2" height="24.65" shape-rendering="crispEdges"/><rect fill="#242f38" x="97.6" y="1.5" width="610" height="24.65" shape-rendering="crispEdges"/><rect fill="#242f38" x="707.6" y="1.5" width="36.6" height="24.65" shape-rendering="crispEdges"/><rect fill="#242f38" x="744.2" y="1.5" width="36.6" height="24.65" shape-rendering="crispEdges"/><rect fill="#242f38" x="780.8" y="1.5" width="183" height="24.65" shape-rendering="crispEdges"/><rect fill="#242f38" x="963.8" y="1.5" width="622.2" height="24.65" shape-rendering="crispEdges"/><rect fill="#242f38" x="1586" y="1.5" width="12.2" height="24.65" shape-rendering="crispEdges"/><rect fill="#242f38" x="1598.2" y="1.5" width="0" height="24.65" shape-rendering="crispEdges"/><rect fill="#242f38" x="1598.2" y="1.5" width="97.6" height="24.65" shape-rendering="crispEdges"/><rect fill="#242f38" x="1695.8" y="1.5" width="12.2" height="24.65" shape-rendering="crispEdges"/><rect fill="#1e1e1e" x="0" y="25.9" width="207.4" height="24.65" shape-rendering="crispEdges"/><rect fill="#1e1e1e" x="207.4" y="25.9" width="36.6" height="24.65" shape-rendering="crispEdges"/><rect fill="#1e1e1e" x="244" y="25.9" width="219.6" height="24.65" shape-rendering="crispEdges"/><rect fill="#1e1e1e" x="463.6" y="25.9" width="219.6" height="24.65" shape-rendering="crispEdges"/><rect fill="#153854" x="683.2" y="25.9" width="24.4" height="24.65" shape-rendering="crispEdges"/><rect fill="#153854" x="707.6" y="25.9" width="48.8" height="24.65" shape-rendering="crispEdges"/><rect fill="#153854" x="756.4" y="25.9" width="73.2" height="24.65" shape-rendering="crispEdges"/><rect fill="#1e1e1e" x="829.6" y="25.9" width="256.2" height="24.65" shape-rendering="crispEdges"/><rect fill="#1e1e1e" x="1085.8" y="25.9" width="622.2" height="24.65" shape-rendering="crispEdges"/><rect fill="#1e1e1e" x="0" y="50.3" width="24.4" height="24.65" shape-rendering="crispEdges"/><rect fill="#1e1e1e" x="24.4" y="50.3" width="48.8" height="24.65" shape-rendering="crispEdges"/><rect fill="#1e1e1e" x="73.2" y="50.3" width="24.4" height="24.65" shape-rendering="crispEdges"/><rect fill="#0178d4" x="97.6" y="50.3" width="48.8" height="24.65" shape-rendering="crispEdges"/><rect fill="#1e1e1e" x="146.4" y="50.3" width="317.2" height="24.65" shape-rendering="crispEdges"/><rect fill="#1e1e1e" x="463.6" y="50.3" width="24.4" height="24.65" shape-rendering="crispEdges"/><rect fill="#1e1e1e" x="488" y="50.3" width="48.8" height="24.65" shape-rendering="crispEdges"/><rect fill="#1e1e1e" x="536.8" y="50.3" width="24.4" height="24.65" shape-rendering="crispEdges"/><rect fill="#1e1e1e" x="561.2" y="50.3" width="61" height="24.65" shape-rendering="crispEdges"/><rect fill="#1e1e1e" x="622.2" y="50.3" width="463.6" height="24.65" shape-rendering="crispEdges"/><rect fill="#1e1e1e" x="1085.8" y="50.3" width="12.2" height="24.65" shape-rendering="crispEdges"/><rect fill="#1e1e1e" x="1098" y="50.3" width="597.8" height="24.65" shape-rendering="crispEdges"/><rect fill="#1e1e1e" x="1695.8" y="50.3" width="12.2" height="24.65" shape-rendering="crispEdges"/><rect fill="#1e1e1e" x="0" y="74.7" width="24.4" height="24.65" shape-rendering="crispEdges"/><rect fill="#1e1e1e" x="24.4" y="74.7" width="24.4" height="24.65" shape-rendering="crispEdges"/><rect fill="#1e1e1e" x="48.8" y="74.7" width="48.8" height="24.65" shape-rendering="crispEdges"/><rect fill="#1e1e1e" x="97.6" y="74.7" width="24.4" height="24.65" shape-rendering="crispEdges"/><rect fill="#1e1e1e" x="122" y="74.7" width="61" height="24.65" shape-rendering="crispEdges"/><rect fill="#1e1e1e" x="183" y="74.7" width="280.6" height="24.65" shape-rendering="crispEdges"/><rect fill="#1e1e1e" x="463.6" y="74.7" width="24.4" height="24.65" shape-rendering="crispEdges"/><rect fill="#1e1e1e" x="488" y="74.7" width="24.4" height="24.65" shape-rendering="crispEdges"/><rect fill="#1e1e1e" x="512.4" y="74.7" width="48.8" height="24.65" shape-rendering="crispEdges"/><rect fill="#1e1e1e" x="561.2" y="74.7" width="24.4" height="24.65" shape-rendering="crispEdges"/><rect fill="#1e1e1e" x="585.6" y="74.7" width="122" height="24.65" shape-rendering="crispEdges"/><rect fill="#1e1e1e" x="707.6" y="74.7" width="378.2" height="24.65" shape-rendering="crispEdges"/><rect fill="#1e1e1e" x="1085.8" y="74.7" width="12.2" height="24.65" shape-rendering="crispEdges"/><rect fill="#1e1e1e" x="1098" y="74.7" width="597.8" height="24.65" shape-rendering="crispEdges"/><rect fill="#1e1e1e" x="1695.8" y="74.7" width="12.2" height="24.65" shape-rendering="crispEdges"/><rect fill="#1e1e1e" x="0" y="99.1" width="24.4" height="24.65" shape-rendering="crispEdges"/><rect fill="#1e1e1e" x="24.4" y="99.1" width="48.8" height="24.65" shape-rendering="crispEdges"/><rect fill="#1e1e1e" x="73.2" y="99.1" width="24.4" height="24.65" shape-rendering="crispEdges"/><rect fill="#1e1e1e" x="97.6" y="99.1" width="122" height="24.65" shape-rendering="crispEdges"/><rect fill="#1e1e1e" x="219.6" y="99.1" width="244" height="24.65" shape-rendering="crispEdges"/><rect fill="#1e1e1e" x="463.6" y="99.1" width="24.4" height="24.65" shape-rendering="crispEdges"/><rect fill="#1e1e1e" x="488" y="99.1" width="48.8" height="24.65" shape-rendering="crispEdges"/><rect fill="#1e1e1e" x="536.8" y="99.1" width="24.4" height="24.65" shape-rendering="crispEdges"/><rect fill="#1e1e1e" x="561.2" y="99.1" width="85.4" height="24.65" shape-rendering="crispEdges"/><rect fill="#1e1e1e" x="646.6" y="99.1" width="439.2" height="24.65" shape-rendering="crispEdges"/><rect fill="#1e1e1e" x="1085.8" y="99.1" width="12.2" height="24.65" shape-rendering="crispEdges"/><rect fill="#1e1e1e" x="1098" y="99.1" width="597.8" height="24.65" shape-rendering="crispEdges"/><rect fill="#1e1e1e" x="1695.8" y="99.1" width="12.2" height="24.65" shape-rendering="crispEdges"/><rect fill="#1e1e1e" x="0" y="123.5" width="463.6" height="24.65" shape-rendering="crispEdges"/><rect fill="#1e1e1e" x="463.6" y="123.5" width="622.2" height="24.65" shape-rendering="crispEdges"/><rect fill="#1e1e1e" x="1085.8" y="123.5" width="12.2" height="24.65" shape-rendering="crispEdges"/><rect fill="#1e1e1e" x="1098" y="123.5" width="122" height="24.65" shape-rendering="crispEdges"/><rect fill="#1e1e1e" x="1220" y="123.5" width="475.8" height="24.65" shape-rendering="crispEdges"/><rect fill="#1e1e1e" x="1695.8" y="123.5" width="12.2" height="24.65" shape-rendering="crispEdges"/><rect fill="#1e1e1e" x="0" y="147.9" width="463.6" height="24.65" shape-rendering="crispEdges"/><rect fill="#1e1e1e" x="463.6" y="147.9" width="622.2" height="24.65" shape-rendering="crispEdges"/><rect fill="#1e1e1e" x="1085.8" y="147.9" width="12.2" height="24.65" shape-rendering="crispEdges"/><rect fill="#1e1e1e" x="1098" y="147.9" width="24.4" height="24.65" shape-rendering="crispEdges"/><rect fill="#1e1e1e" x="1122.4" y="147.9" width="48.8" height="24.65" shape-rendering="crispEdges"/><rect fill="#1e1e1e" x="1171.2" y="147.9" width="500.2" height="24.65" shape-rendering="crispEdges"/><rect fill="#1e1e1e" x="1671.4" y="147.9" width="24.4" height="24.65" shape-rendering="crispEdges"/><rect fill="#1e1e1e" x="1695.8" y="147.9" width="12.2" height="24.65" shape-rendering="crispEdges"/><rect fill="#1e1e1e" x="0" y="172.3" width="463.6" height="24.65" shape-rendering="crispEdges"/><rect fill="#1e1e1e" x="463.6" y="172.3" width="622.2" height="24.65" shape-rendering="crispEdges"/><rect fill="#1e1e1e" x="1085.8" y="172.3" width="12.2" height="24.65" shape-rendering="crispEdges"/><rect fill="#1e1e1e" x="1098" y="172.3" width="24.4" height="24.65" shape-rendering="crispEdges"/><rect fill="#1e1e1e" x="1122.4" y="172.3" width="549" height="24.65" shape-rendering="crispEdges"/><rect fill="#1e1e1e" x="1671.4" y="172.3" width="24.4" height="24.65" shape-rendering="crispEdges"/><rect fill="#1e1e1e" x="1695.8" y="172.3" width="12.2" height="24.65" shape-rendering="crispEdges"/><rect fill="#1e1e1e" x="0" y="196.7" width="463.6" height="24.65" shape-rendering="crispEdges"/><rect fill="#1e1e1e" x="463.6" y="196.7" width="622.2" height="24.65" shape-rendering="crispEdges"/><rect fill="#1e1e1e" x="1085.8" y="196.7" width="12.2" height="24.65" shape-rendering="crispEdges"/><rect fill="#1e1e1e" x="1098" y="196.7" width="597.8" height="24.65" shape-rendering="crispEdges"/><rect fill="#1e1e1e" x="1695.8" y="196.7" width="12.2" height="24.65" shape-rendering="crispEdges"/><rect fill="#1e1e1e" x="0" y="221.1" width="463.6" height="24.65" shape-rendering="crispEdges"/><rect fill="#1e1e1e" x="463.6" y="221.1" width="622.2" height="24.65" shape-rendering="crispEdges"/><rect fill="#1e1e1e" x="1085.8" y="221.1" width="12.2" height="24.65" shape-rendering="crispEdges"/><rect fill="#1e1e1e" x="1098" y="221.1" width="597.8" height="24.65" shape-rendering="crispEdges"/><rect fill="#1e1e1e" x="1695.8" y="221.1" width="12.2" height="24.65" shape-rendering="crispEdges"/><rect fill="#1e1e1e" x="0" y="245.5" width="463.6" height="24.65" shape-rendering="crispEdges"/><rect fill="#1e1e1e" x="463.6" y="245.5" width="622.2" height="24.65" shape-rendering="crispEdges"/><rect fill="#1e1e1e" x="1085.8" y="245.5" width="12.2" height="24.65" shape-rendering="crispEdges"/><rect fill="#1e1e1e" x="1098" y="245.5" width="597.8" height="24.65" shape-rendering="crispEdges"/><rect fill="#1e1e1e" x="1695.8" y="245.5" width="12.2" height="24.65" shape-rendering="crispEdges"/><rect fill="#1e1e1e" x="0" y="269.9" width="463.6" height="24.65" shape-rendering="crispEdges"/><rect fill="#1e1e1e" x="463.6" y="269.9" width="622.2" height="24.65" shape-rendering="crispEdges"/><rect fill="#1e1e1e" x="1085.8" y="269.9" width="12.2" height="24.65" shape-rendering="crispEdges"/><rect fill="#1e1e1e" x="1098" y="269.9" width="597.8" height="24.65" shape-rendering="crispEdges"/><rect fill="#1e1e1e" x="1695.8" y="269.9" width="12.2" height="24.65" shape-rendering="crispEdges"/><rect fill="#1e1e1e" x="0" y="294.3" width="463.6" height="24.65" shape-rendering="crispEdges"/><rect fill="#1e1e1e" x="463.6" y="294.3" width="622.2" height="24.65" shape-rendering="crispEdges"/><rect fill="#1e1e1e" x="1085.8" y="294.3" width="12.2" height="24.65" shape-rendering="crispEdges"/><rect fill="#1e1e1e" x="1098" y="294.3" width="597.8" height="24.65" shape-rendering="crispEdges"/><rect fill="#1e1e1e" x="1695.8" y="294.3" width="12.2" height="24.65" shape-rendering="crispEdges"/><rect fill="#1e1e1e" x="0" y="318.7" width="463.6" height="24.65" shape-rendering="crispEdges"/><rect fill="#1e1e1e" x="463.6" y="318.7" width="622.2" height="24.65" shape-rendering="crispEdges"/><rect fill="#1e1e1e" x="1085.8" y="318.7" width="12.2" height="24.65" shape-rendering="crispEdges"/><rect fill="#1e1e1e" x="1098" y="318.7" width="597.8" height="24.65" shape-rendering="crispEdges"/><rect fill="#1e1e1e" x="1695.8" y="318.7" width="12.2" height="24.65" shape-rendering="crispEdges"/><rect fill="#1e1e1e" x="0" y="343.1" width="463.6" height="24.65" shape-rendering="crispEdges"/><rect fill="#1e1e1e" x="463.6" y="343.1" width="622.2" height="24.65" shape-rendering="crispEdges"/><rect fill="#1e1e1e" x="1085.8" y="343.1" width="12.2" height="24.65" shape-rendering="crispEdges"/><rect fill="#1e1e1e" x="1098" y="343.1" width="597.8" height="24.65" shape-rendering="crispEdges"/><rect fill="#1e1e1e" x="1695.8" y="343.1" width="12.2" height="24.65" shape-rendering="crispEdges"/><rect fill="#1e1e1e" x="0" y="367.5" width="463.6" height="24.65" shape-rendering="crispEdges"/><rect fill="#1e1e1e" x="463.6" y="367.5" width="622.2" height="24.65" shape-rendering="crispEdges"/><rect fill="#1e1e1e" x="1085.8" y="367.5" width="12.2" height="24.65" shape-rendering="crispEdges"/><rect fill="#1e1e1e" x="1098" y="367.5" width="597.8" height="24.65" shape-rendering="crispEdges"/><rect fill="#1e1e1e" x="1695.8" y="367.5" width="12.2" height="24.65" shape-rendering="crispEdges"/><rect fill="#1e1e1e" x="0" y="391.9" width="463.6" height="24.65" shape-rendering="crispEdges"/><rect fill="#1e1e1e" x="463.6" y="391.9" width="622.2" height="24.65" shape-rendering="crispEdges"/><rect fill="#1e1e1e" x="1085.8" y="391.9" width="12.2" height="24.65" shape-rendering="crispEdges"/><rect fill="#1e1e1e" x="1098" y="391.9" width="597.8" height="24.65" shape-rendering="crispEdges"/><rect fill="#1e1e1e" x="1695.8" y="391.9" width="12.2" height="24.65" shape-rendering="crispEdges"/><rect fill="#1e1e1e" x="0" y="416.3" width="463.6" height="24.65" shape-rendering="crispEdges"/><rect fill="#1e1e1e" x="463.6" y="416.3" width="622.2" height="24.65" shape-rendering="crispEdges"/><rect fill="#1e1e1e" x="1085.8" y="416.3" width="12.2" height="24.65" shape-rendering="crispEdges"/><rect fill="#1e1e1e" x="1098" y="416.3" width="597.8" height="24.65" shape-rendering="crispEdges"/><rect fill="#1e1e1e" x="1695.8" y="416.3" width="12.2" height="24.65" shape-rendering="crispEdges"/><rect fill="#1e1e1e" x="0" y="440.7" width="463.6" height="24.65" shape-rendering="crispEdges"/><rect fill="#1e1e1e" x="463.6" y="440.7" width="622.2" height="24.65" shape-rendering="crispEdges"/><rect fill="#1e1e1e" x="1085.8" y="440.7" width="12.2" height="24.65" shape-rendering="crispEdges"/><rect fill="#1e1e1e" x="1098" y="440.7" width="597.8" height="24.65" shape-rendering="crispEdges"/><rect fill="#1e1e1e" x="1695.8" y="440.7" width="12.2" height="24.65" shape-rendering="crispEdges"/><rect fill="#1e1e1e" x="0" y="465.1" width="463.6" height="24.65" shape-rendering="crispEdges"/><rect fill="#1e1e1e" x="463.6" y="465.1" width="622.2" height="24.65" shape-rendering="crispEdges"/><rect fill="#1e1e1e" x="1085.8" y="465.1" width="12.2" height="24.65" shape-rendering="crispEdges"/><rect fill="#1e1e1e" x="1098" y="465.1" width="597.8" height="24.65" shape-rendering="crispEdges"/><rect fill="#1e1e1e" x="1695.8" y="465.1" width="12.2" height="24.65" shape-rendering="crispEdges"/><rect fill="#1e1e1e" x="0" y="489.5" width="463.6" height="24.65" shape-rendering="crispEdges"/><rect fill="#1e1e1e" x="463.6" y="489.5" width="622.2" height="24.65" shape-rendering="crispEdges"/><rect fill="#1e1e1e" x="1085.8" y="489.5" width="12.2" height="24.65" shape-rendering="crispEdges"/><rect fill="#1e1e1e" x="1098" y="489.5" width="597.8" height="24.65" shape-rendering="crispEdges"/><rect fill="#1e1e1e" x="1695.8" y="489.5" width="12.2" height="24.65" shape-rendering="crispEdges"/><rect fill="#1e1e1e" x="0" y="513.9" width="463.6" height="24.65" shape-rendering="crispEdges"/><rect fill="#1e1e1e" x="463.6" y="513.9" width="622.2" height="24.65" shape-rendering="crispEdges"/><rect fill="#1e1e1e" x="1085.8" y="513.9" width="12.2" height="24.65" shape-rendering="crispEdges"/><rect fill="#1e1e1e" x="1098" y="513.9" width="597.8" height="24.65" shape-rendering="crispEdges"/><rect fill="#1e1e1e" x="1695.8" y="513.9" width="12.2" height="24.65" shape-rendering="crispEdges"/><rect fill="#1e1e1e" x="0" y="538.3" width="463.6" height="24.65" shape-rendering="crispEdges"/><rect fill="#1e1e1e" x="463.6" y="538.3" width="622.2" height="24.65" shape-rendering="crispEdges"/><rect fill="#1e1e1e" x="1085.8" y="538.3" width="12.2" height="24.65" shape-rendering="crispEdges"/><rect fill="#1e1e1e" x="1098" y="538.3" width="597.8" height="24.65" shape-rendering="crispEdges"/><rect fill="#1e1e1e" x="1695.8" y="538.3" width="12.2" height="24.65" shape-rendering="crispEdges"/><rect fill="#1e1e1e" x="0" y="562.7" width="463.6" height="24.65" shape-rendering="crispEdges"/><rect fill="#1e1e1e" x="463.6" y="562.7" width="622.2" height="24.65" shape-rendering="crispEdges"/><rect fill="#1e1e1e" x="1085.8" y="562.7" width="12.2" height="24.65" shape-rendering="crispEdges"/><rect fill="#1e1e1e" x="1098" y="562.7" width="597.8" height="24.65" shape-rendering="crispEdges"/><rect fill="#1e1e1e" x="1695.8" y="562.7" width="12.2" height="24.65" shape-rendering="crispEdges"/><rect fill="#1e1e1e" x="0" y="587.1" width="463.6" height="24.65" shape-rendering="crispEdges"/><rect fill="#1e1e1e" x="463.6" y="587.1" width="622.2" height="24.65" shape-rendering="crispEdges"/><rect fill="#1e1e1e" x="1085.8" y="587.1" width="12.2" height="24.65" shape-rendering="crispEdges"/><rect fill="#1e1e1e" x="1098" y="587.1" width="597.8" height="24.65" shape-rendering="crispEdges"/><rect fill="#1e1e1e" x="1695.8" y="587.1" width="12.2" height="24.65" shape-rendering="crispEdges"/><rect fill="#1e1e1e" x="0" y="611.5" width="463.6" height="24.65" shape-rendering="crispEdges"/><rect fill="#1e1e1e" x="463.6" y="611.5" width="622.2" height="24.65" shape-rendering="crispEdges"/><rect fill="#1e1e1e" x="1085.8" y="611.5" width="12.2" height="24.65" shape-rendering="crispEdges"/><rect fill="#1e1e1e" x="1098" y="611.5" width="597.8" height="24.65" shape-rendering="crispEdges"/><rect fill="#1e1e1e" x="1695.8" y="611.5" width="12.2" height="24.65" shape-rendering="crispEdges"/><rect fill="#1e1e1e" x="0" y="635.9" width="463.6" height="24.65" shape-rendering="crispEdges"/><rect fill="#1e1e1e" x="463.6" y="635.9" width="622.2" height="24.65" shape-rendering="crispEdges"/><rect fill="#1e1e1e" x="1085.8" y="635.9" width="12.2" height="24.65" shape-rendering="crispEdges"/><rect fill="#1e1e1e" x="1098" y="635.9" width="597.8" height="24.65" shape-rendering="crispEdges"/><rect fill="#1e1e1e" x="1695.8" y="635.9" width="12.2" height="24.65" shape-rendering="crispEdges"/><rect fill="#1e1e1e" x="0" y="660.3" width="463.6" height="24.65" shape-rendering="crispEdges"/><rect fill="#1e1e1e" x="463.6" y="660.3" width="622.2" height="24.65" shape-rendering="crispEdges"/><rect fill="#1e1e1e" x="1085.8" y="660.3" width="12.2" height="24.65" shape-rendering="crispEdges"/><rect fill="#1e1e1e" x="1098" y="660.3" width="597.8" height="24.65" shape-rendering="crispEdges"/><rect fill="#1e1e1e" x="1695.8" y="660.3" width="12.2" height="24.65" shape-rendering="crispEdges"/><rect fill="#1e1e1e" x="0" y="684.7" width="463.6" height="24.65" shape-rendering="crispEdges"/><rect fill="#1e1e1e" x="463.6" y="684.7" width="622.2" height="24.65" shape-rendering="crispEdges"/><rect fill="#1e1e1e" x="1085.8" y="684.7" width="12.2" height="24.65" shape-rendering="crispEdges"/><rect fill="#1e1e1e" x="1098" y="684.7" width="597.8" height="24.65" shape-rendering="crispEdges"/><rect fill="#1e1e1e" x="1695.8" y="684.7" width="12.2" height="24.65" shape-rendering="crispEdges"/><rect fill="#1e1e1e" x="0" y="709.1" width="463.6" height="24.65" shape-rendering="crispEdges"/><rect fill="#1e1e1e" x="463.6" y="709.1" width="622.2" height="24.65" shape-rendering="crispEdges"/><rect fill="#1e1e1e" x="1085.8" y="709.1" width="12.2" height="24.65" shape-rendering="crispEdges"/><rect fill="#1e1e1e" x="1098" y="709.1" width="597.8" height="24.65" shape-rendering="crispEdges"/><rect fill="#1e1e1e" x="1695.8" y="709.1" width="12.2" height="24.65" shape-rendering="crispEdges"/><rect fill="#1e1e1e" x="0" y="733.5" width="463.6" height="24.65" shape-rendering="crispEdges"/><rect fill="#1e1e1e" x="463.6" y="733.5" width="622.2" height="24.65" shape-rendering="crispEdges"/><rect fill="#1e1e1e" x="1085.8" y="733.5" width="12.2" height="24.65" shape-rendering="crispEdges"/><rect fill="#1e1e1e" x="1098" y="733.5" width="597.8" height="24.65" shape-rendering="crispEdges"/><rect fill="#1e1e1e" x="1695.8" y="733.5" width="12.2" height="24.65" shape-rendering="crispEdges"/><rect fill="#1e1e1e" x="0" y="757.9" width="463.6" height="24.65" shape-rendering="crispEdges"/><rect fill="#1e1e1e" x="463.6" y="757.9" width="622.2" height="24.65" shape-rendering="crispEdges"/><rect fill="#1e1e1e" x="1085.8" y="757.9" width="12.2" height="24.65" shape-rendering="crispEdges"/><rect fill="#1e1e1e" x="1098" y="757.9" width="597.8" height="24.65" shape-rendering="crispEdges"/><rect fill="#1e1e1e" x="1695.8" y="757.9" width="12.2" height="24.65" shape-rendering="crispEdges"/><rect fill="#1e1e1e" x="0" y="782.3" width="463.6" height="24.65" shape-rendering="crispEdges"/><rect fill="#1e1e1e" x="463.6" y="782.3" width="622.2" height="24.65" shape-rendering="crispEdges"/><rect fill="#1e1e1e" x="1085.8" y="782.3" width="12.2" height="24.65" shape-rendering="crispEdges"/><rect fill="#1e1e1e" x="1098" y="782.3" width="597.8" height="24.65" shape-rendering="crispEdges"/><rect fill="#1e1e1e" x="1695.8" y="782.3" width="12.2" height="24.65" shape-rendering="crispEdges"/><rect fill="#1e1e1e" x="0" y="806.7" width="463.6" height="24.65" shape-rendering="crispEdges"/><rect fill="#1e1e1e" x="463.6" y="806.7" width="622.2" height="24.65" shape-rendering="crispEdges"/><rect fill="#1e1e1e" x="1085.8" y="806.7" width="12.2" height="24.65" shape-rendering="crispEdges"/><rect fill="#1e1e1e" x="1098" y="806.7" width="597.8" height="24.65" shape-rendering="crispEdges"/><rect fill="#1e1e1e" x="1695.8" y="806.7" width="12.2" height="24.65" shape-rendering="crispEdges"/><rect fill="#1e1e1e" x="0" y="831.1" width="463.6" height="24.65" shape-rendering="crispEdges"/><rect fill="#1e1e1e" x="463.6" y="831.1" width="622.2" height="24.65" shape-rendering="crispEdges"/><rect fill="#1e1e1e" x="1085.8" y="831.1" width="12.2" height="24.65" shape-rendering="crispEdges"/><rect fill="#1e1e1e" x="1098" y="831.1" width="597.8" height="24.65" shape-rendering="crispEdges"/><rect fill="#1e1e1e" x="1695.8" y="831.1" width="12.2" height="24.65" shape-rendering="crispEdges"/><rect fill="#1e1e1e" x="0" y="855.5" width="463.6" height="24.65" shape-rendering="crispEdges"/><rect fill="#1e1e1e" x="463.6" y="855.5" width="622.2" height="24.65" shape-rendering="crispEdges"/><rect fill="#1e1e1e" x="1085.8" y="855.5" width="12.2" height="24.65" shape-rendering="crispEdges"/><rect fill="#1e1e1e" x="1098" y="855.5" width="597.8" height="24.65" shape-rendering="crispEdges"/><rect fill="#1e1e1e" x="1695.8" y="855.5" width="12.2" height="24.65" shape-rendering="crispEdges"/><rect fill="#1e1e1e" x="0" y="879.9" width="463.6" height="24.65" shape-rendering="crispEdges"/><rect fill="#1e1e1e" x="463.6" y="879.9" width="622.2" height="24.65" shape-rendering="crispEdges"/><rect fill="#1e1e1e" x="1085.8" y="879.9" width="12.2" height="24.65" shape-rendering="crispEdges"/><rect fill="#1e1e1e" x="1098" y="879.9" width="597.8" height="24.65" shape-rendering="crispEdges"/><rect fill="#1e1e1e" x="1695.8" y="879.9" width="12.2" height="24.65" shape-rendering="crispEdges"/><rect fill="#1e1e1e" x="0" y="904.3" width="463.6" height="24.65" shape-rendering="crispEdges"/><rect fill="#1e1e1e" x="463.6" y="904.3" width="622.2" height="24.65" shape-rendering="crispEdges"/><rect fill="#1e1e1e" x="1085.8" y="904.3" width="12.2" height="24.65" shape-rendering="crispEdges"/><rect fill="#1e1e1e" x="1098" y="904.3" width="597.8" height="24.65" shape-rendering="crispEdges"/><rect fill="#1e1e1e" x="1695.8" y="904.3" width="12.2" height="24.65" shape-rendering="crispEdges"/><rect fill="#1e1e1e" x="0" y="928.7" width="463.6" height="24.65" shape-rendering="crispEdges"/><rect fill="#1e1e1e" x="463.6" y="928.7" width="622.2" height="24.65" shape-rendering="crispEdges"/><rect fill="#1e1e1e" x="1085.8" y="928.7" width="12.2" height="24.65" shape-rendering="crispEdges"/><rect fill="#1e1e1e" x="1098" y="928.7" width="597.8" height="24.65" shape-rendering="crispEdges"/><rect fill="#1e1e1e" x="1695.8" y="928.7" width="12.2" height="24.65" shape-rendering="crispEdges"/><rect fill="#1e1e1e" x="0" y="953.1" width="463.6" height="24.65" shape-rendering="crispEdges"/><rect fill="#1e1e1e" x="463.6" y="953.1" width="622.2" height="24.65" shape-rendering="crispEdges"/><rect fill="#1e1e1e" x="1085.8" y="953.1" width="12.2" height="24.65" shape-rendering="crispEdges"/><rect fill="#1e1e1e" x="1098" y="953.1" width="597.8" height="24.65" shape-rendering="crispEdges"/><rect fill="#1e1e1e" x="1695.8" y="953.1" width="12.2" height="24.65" shape-rendering="crispEdges"/><rect fill="#1e1e1e" x="0" y="977.5" width="463.6" height="24.65" shape-rendering="crispEdges"/><rect fill="#1e1e1e" x="463.6" y="977.5" width="622.2" height="24.65" shape-rendering="crispEdges"/><rect fill="#1e1e1e" x="1085.8" y="977.5" width="622.2" height="24.65" shape-rendering="crispEdges"/><rect fill="#242f38" x="0" y="1001.9" width="61" height="24.65" shape-rendering="crispEdges"/><rect fill="#242f38" x="61" y="1001.9" width="109.8" height="24.65" shape-rendering="crispEdges"/><rect fill="#242f38" x="170.8" y="1001.9" width="12.2" height="24.65" shape-rendering="crispEdges"/><rect fill="#242f38" x="183" y="1001.9" width="12.2" height="24.65" shape-rendering="crispEdges"/><rect fill="#242f38" x="195.2" y="1001.9" width="61" height="24.65" shape-rendering="crispEdges"/><rect fill="#242f38" x="256.2" y="1001.9" width="12.2" height="24.65" shape-rendering="crispEdges"/><rect fill="#242f38" x="268.4" y="1001.9" width="12.2" height="24.65" shape-rendering="crispEdges"/><rect fill="#242f38" x="280.6" y="1001.9" width="48.8" height="24.65" shape-rendering="crispEdges"/><rect fill="#242f38" x="329.4" y="1001.9" width="12.2" height="24.65" shape-rendering="crispEdges"/><rect fill="#242f38" x="341.6" y="1001.9" width="12.2" height="24.65" shape-rendering="crispEdges"/><rect fill="#242f38" x="353.8" y="1001.9" width="122" height="24.65" shape-rendering="crispEdges"/><rect fill="#242f38" x="475.8" y="1001.9" width="12.2" height="24.65" shape-rendering="crispEdges"/><rect fill="#242f38" x="488" y="1001.9" width="12.2" height="24.65" shape-rendering="crispEdges"/><rect fill="#242f38" x="500.2" y="1001.9" width="61" height="24.65" shape-rendering="crispEdges"/><rect fill="#242f38" x="561.2" y="1001.9" width="12.2" height="24.65" shape-rendering="crispEdges"/><rect fill="#242f38" x="573.4" y="1001.9" width="12.2" height="24.65" shape-rendering="crispEdges"/><rect fill="#242f38" x="585.6" y="1001.9" width="61" height="24.65" shape-rendering="crispEdges"/><rect fill="#242f38" x="646.6" y="1001.9" width="915" height="24.65" shape-rendering="crispEdges"/><rect fill="#242f38" x="1561.6" y="1001.9" width="12.2" height="24.65" shape-rendering="crispEdges"/><rect fill="#242f38" x="1573.8" y="1001.9" width="24.4" height="24.65" shape-rendering="crispEdges"/><rect fill="#242f38" x="1598.2" y="1001.9" width="97.6" height="24.65" shape-rendering="crispEdges"/><rect fill="#242f38" x="1695.8" y="1001.9" width="12.2" height="24.65" shape-rendering="crispEdges"/>
    <g class="terminal-2709292715-matrix">
    <text class="terminal-2709292715-r2" x="12.2" y="20" textLength="12.2" clip-path="url(#terminal-2709292715-line-0)">⭘</text><text class="terminal-2709292715-r2" x="707.6" y="20" textLength="36.6" clip-path="url(#terminal-2709292715-line-0)">LoT</text><text class="terminal-2709292715-r3" x="744.2" y="20" textLength="36.6" clip-path="url(#terminal-2709292715-line-0)">&#160;—&#160;</text><text class="terminal-2709292715-r3" x="780.8" y="20" textLength="183" clip-path="url(#terminal-2709292715-line-0)">Lists&#160;of&#160;Things</text><text class="terminal-2709292715-r1" x="1708" y="20" textLength="12.2" clip-path="url(#terminal-2709292715-line-0)">
</text><text class="terminal-2709292715-r4" x="207.4" y="44.4" textLength="36.6" clip-path="url(#terminal-2709292715-line-1)">LoT</text><text class="terminal-2709292715-r4" x="707.6" y="44.4" textLength="48.8" clip-path="url(#terminal-2709292715-line-1)">work</text><text class="terminal-2709292715-r4" x="756.4" y="44.4" textLength="73.2" clip-path="url(#terminal-2709292715-line-1)">&#160;&#160;Root</text><text class="terminal-2709292715-r1" x="1708" y="44.4" textLength="12.2" clip-path="url(#terminal-2709292715-line-1)">
</text><text class="terminal-2709292715-r6" x="24.4" y="68.8" textLength="48.8" clip-path="url(#terminal-2709292715-line-2)">work</text><text class="terminal-2709292715-r7" x="97.6" y="68.8" textLength="48.8" clip-path="url(#terminal-2709292715-line-2)">Root</text><text class="terminal-2709292715-r6" x="488" y="68.8" textLength="48.8" clip-path="url(#terminal-2709292715-line-2)">work</text><text class="terminal-2709292715-r2" x="561.2" y="68.8" textLength="61" clip-path="url(#terminal-2709292715-line-2)">Child</text><text class="terminal-2709292715-r1" x="1708" y="68.8" textLength="12.2" clip-path="url(#terminal-2709292715-line-2)">
</text><text class="terminal-2709292715-r6" x="48.8" y="93.2" textLength="48.8" clip-path="url(#terminal-2709292715-line-3)">work</text><text class="terminal-2709292715-r2" x="122" y="93.2" textLength="61" clip-path="url(#terminal-2709292715-line-3)">Child</text><text class="terminal-2709292715-r6" x="512.4" y="93.2" textLength="48.8" clip-path="url(#terminal-2709292715-line-3)">note</text><text class="terminal-2709292715-r2" x="585.6" y="93.2" textLength="122" clip-path="url(#terminal-2709292715-line-3)">Grandchild</text><text class="terminal-2709292715-r8" x="1098" y="93.2" textLength="597.8" clip-path="url(#terminal-2709292715-line-3)">─────────────────────────────────────────────────</text><text class="terminal-2709292715-r1" x="1708" y="93.2" textLength="12.2" clip-path="url(#terminal-2709292715-line-3)">
</text><text class="terminal-2709292715-r6" x="24.4" y="117.6" textLength="48.8" clip-path="url(#terminal-2709292715-line-4)">note</text><text class="terminal-2709292715-r2" x="97.6" y="117.6" textLength="122" clip-path="url(#terminal-2709292715-line-4)">Other&#160;root</text><text class="terminal-2709292715-r6" x="488" y="117.6" textLength="48.8" clip-path="url(#terminal-2709292715-line-4)">done</text><text class="terminal-2709292715-r2" x="561.2" y="117.6" textLength="85.4" clip-path="url(#terminal-2709292715-line-4)">Sibling</text><text class="terminal-2709292715-r1" x="1708" y="117.6" textLength="12.2" clip-path="url(#terminal-2709292715-line-4)">
</text><text class="terminal-2709292715-r9" x="1098" y="142" textLength="122" clip-path="url(#terminal-2709292715-line-5)">▼&#160;note&#160;·&#160;t</text><text class="terminal-2709292715-r1" x="1708" y="142" textLength="12.2" clip-path="url(#terminal-2709292715-line-5)">
</text><text class="terminal-2709292715-r2" x="1122.4" y="166.4" textLength="48.8" clip-path="url(#terminal-2709292715-line-6)">body</text><text class="terminal-2709292715-r1" x="1708" y="166.4" textLength="12.2" clip-path="url(#terminal-2709292715-line-6)">
</text><text class="terminal-2709292715-r1" x="1708" y="190.8" textLength="12.2" clip-path="url(#terminal-2709292715-line-7)">
</text><text class="terminal-2709292715-r1" x="1708" y="215.2" textLength="12.2" clip-path="url(#terminal-2709292715-line-8)">
</text><text class="terminal-2709292715-r1" x="1708" y="239.6" textLength="12.2" clip-path="url(#terminal-2709292715-line-9)">
</text><text class="terminal-2709292715-r1" x="1708" y="264" textLength="12.2" clip-path="url(#terminal-2709292715-line-10)">
</text><text class="terminal-2709292715-r1" x="1708" y="288.4" textLength="12.2" clip-path="url(#terminal-2709292715-line-11)">
</text><text class="terminal-2709292715-r1" x="1708" y="312.8" textLength="12.2" clip-path="url(#terminal-2709292715-line-12)">
</text><text class="terminal-2709292715-r1" x="1708" y="337.2" textLength="12.2" clip-path="url(#terminal-2709292715-line-13)">
</text><text class="terminal-2709292715-r1" x="1708" y="361.6" textLength="12.2" clip-path="url(#terminal-2709292715-line-14)">
</text><text class="terminal-2709292715-r1" x="1708" y="386" textLength="12.2" clip-path="url(#terminal-2709292715-line-15)">
</text><text class="terminal-2709292715-r1" x="1708" y="410.4" textLength="12.2" clip-path="url(#terminal-2709292715-line-16)">
</text><text class="terminal-2709292715-r1" x="1708" y="434.8" textLength="12.2" clip-path="url(#terminal-2709292715-line-17)">
</text><text class="terminal-2709292715-r1" x="1708" y="459.2" textLength="12.2" clip-path="url(#terminal-2709292715-line-18)">
</text><text class="terminal-2709292715-r1" x="1708" y="483.6" textLength="12.2" clip-path="url(#terminal-2709292715-line-19)">
</text><text class="terminal-2709292715-r1" x="1708" y="508" textLength="12.2" clip-path="url(#terminal-2709292715-line-20)">
</text><text class="terminal-2709292715-r1" x="1708" y="532.4" textLength="12.2" clip-path="url(#terminal-2709292715-line-21)">
</text><text class="terminal-2709292715-r1" x="1708" y="556.8" textLength="12.2" clip-path="url(#terminal-2709292715-line-22)">
</text><text class="terminal-2709292715-r1" x="1708" y="581.2" textLength="12.2" clip-path="url(#terminal-2709292715-line-23)">
</text><text class="terminal-2709292715-r1" x="1708" y="605.6" textLength="12.2" clip-path="url(#terminal-2709292715-line-24)">
</text><text class="terminal-2709292715-r1" x="1708" y="630" textLength="12.2" clip-path="url(#terminal-2709292715-line-25)">
</text><text class="terminal-2709292715-r1" x="1708" y="654.4" textLength="12.2" clip-path="url(#terminal-2709292715-line-26)">
</text><text class="terminal-2709292715-r1" x="1708" y="678.8" textLength="12.2" clip-path="url(#terminal-2709292715-line-27)">
</text><text class="terminal-2709292715-r1" x="1708" y="703.2" textLength="12.2" clip-path="url(#terminal-2709292715-line-28)">
</text><text class="terminal-2709292715-r1" x="1708" y="727.6" textLength="12.2" clip-path="url(#terminal-2709292715-line-29)">
</text><text class="terminal-2709292715-r1" x="1708" y="752" textLength="12.2" clip-path="url(#terminal-2709292715-line-30)">
</text><text class="terminal-2709292715-r1" x="1708" y="776.4" textLength="12.2" clip-path="url(#terminal-2709292715-line-31)">
</text><text class="terminal-2709292715-r1" x="1708" y="800.8" textLength="12.2" clip-path="url(#terminal-2709292715-line-32)">
</text><text class="terminal-2709292715-r1" x="1708" y="825.2" textLength="12.2" clip-path="url(#terminal-2709292715-line-33)">
</text><text class="terminal-2709292715-r1" x="1708" y="849.6" textLength="12.2" clip-path="url(#terminal-2709292715-line-34)">
</text><text class="terminal-2709292715-r1" x="1708" y="874" textLength="12.2" clip-path="url(#terminal-2709292715-line-35)">
</text><text class="terminal-2709292715-r1" x="1708" y="898.4" textLength="12.2" clip-path="url(#terminal-2709292715-line-36)">
</text><text class="terminal-2709292715-r1" x="1708" y="922.8" textLength="12.2" clip-path="url(#terminal-2709292715-line-37)">
</text><text class="terminal-2709292715-r1" x="1708" y="947.2" textLength="12.2" clip-path="url(#terminal-2709292715-line-38)">
</text><text class="terminal-2709292715-r1" x="1708" y="971.6" textLength="12.2" clip-path="url(#terminal-2709292715-line-39)">
</text><text class="terminal-2709292715-r1" x="1708" y="996" textLength="12.2" clip-path="url(#terminal-2709292715-line-40)">
</text><text class="terminal-2709292715-r10" x="0" y="1020.4" textLength="61" clip-path="url(#terminal-2709292715-line-41)">space</text><text class="terminal-2709292715-r2" x="61" y="1020.4" textLength="109.8" clip-path="url(#terminal-2709292715-line-41)">&#160;Commands</text><text class="terminal-2709292715-r10" x="183" y="1020.4" textLength="12.2" clip-path="url(#terminal-2709292715-line-41)">q</text><text class="terminal-2709292715-r2" x="195.2" y="1020.4" textLength="61" clip-path="url(#terminal-2709292715-line-41)">&#160;Quit</text><text class="terminal-2709292715-r10" x="268.4" y="1020.4" textLength="12.2" clip-path="url(#terminal-2709292715-line-41)">n</text><text class="terminal-2709292715-r2" x="280.6" y="1020.4" textLength="48.8" clip-path="url(#terminal-2709292715-line-41)">&#160;New</text><text class="terminal-2709292715-r10" x="341.6" y="1020.4" textLength="12.2" clip-path="url(#terminal-2709292715-line-41)">a</text><text class="terminal-2709292715-r2" x="353.8" y="1020.4" textLength="122" clip-path="url(#terminal-2709292715-line-41)">&#160;Add&#160;child</text><text class="terminal-2709292715-r10" x="488" y="1020.4" textLength="12.2" clip-path="url(#terminal-2709292715-line-41)">s</text><text class="terminal-2709292715-r2" x="500.2" y="1020.4" textLength="61" clip-path="url(#terminal-2709292715-line-41)">&#160;Sort</text><text class="terminal-2709292715-r10" x="573.4" y="1020.4" textLength="12.2" clip-path="url(#terminal-2709292715-line-41)">x</text><text class="terminal-2709292715-r2" x="585.6" y="1020.4" textLength="61" clip-path="url(#terminal-2709292715-line-41)">&#160;Mark</text><text class="terminal-2709292715-r11" x="1561.6" y="1020.4" textLength="12.2" clip-path="url(#terminal-2709292715-line-41)">▏</text><text class="terminal-2709292715-r10" x="1573.8" y="1020.4" textLength="24.4" clip-path="url(#terminal-2709292715-line-41)">^p</text><text class="terminal-2709292715-r2" x="1598.2" y="1020.4" textLength="97.6" clip-path="url(#terminal-2709292715-line-41)">&#160;Palette</text>
    </g>
    </g>
</svg>
